<?xml version="1.0" encoding="UTF-8" standalone="no"?>
<!-- Created with Inkscape (http://www.inkscape.org/) -->

<svg
   width="150mm"
   height="20mm"
   viewBox="0 0 150 20"
   version="1.1"
   id="svg5"
   inkscape:version="1.1.2 (0a00cf5339, 2022-02-04)"
   sodipodi:docname="ganesh.svg"
   xmlns:inkscape="http://www.inkscape.org/namespaces/inkscape"
   xmlns:sodipodi="http://sodipodi.sourceforge.net/DTD/sodipodi-0.dtd"
   xmlns="http://www.w3.org/2000/svg"
   xmlns:svg="http://www.w3.org/2000/svg">
  <sodipodi:namedview
     id="namedview7"
     pagecolor="#ffffff"
     bordercolor="#666666"
     borderopacity="1.0"
     inkscape:pageshadow="2"
     inkscape:pageopacity="0.0"
     inkscape:pagecheckerboard="0"
     inkscape:document-units="mm"
     showgrid="false"
     inkscape:zoom="1"
     inkscape:cx="207"
     inkscape:cy="53"
     inkscape:window-width="1920"
     inkscape:window-height="1043"
     inkscape:window-x="0"
     inkscape:window-y="0"
     inkscape:window-maximized="1"
     inkscape:current-layer="layer1"
     width="20mm" />
  <defs
     id="defs2" />
  <g
     inkscape:label="Layer 1"
     inkscape:groupmode="layer"
     id="layer1">
    <g
       id="g23524"
       transform="translate(0,-1.5875)">
      <path
         d="M 39.353711,15.162459 V 8.2791805 h 0.682126 v 6.8832785 z m -2.201409,0 V 8.2791805 h 0.682126 v 6.8832785 z"
         id="path23453"
         style="font-size:10.5833px;line-height:1.25;stroke-width:0.264583" />
      <path
         d="m 46.857104,10.418578 q 0.258382,-0.186035 0.403075,-0.4237454 0.144694,-0.2377108 0.144694,-0.4754217 0,-0.2893871 -0.206705,-0.4857569 -0.19637,-0.2067051 -0.485757,-0.2067051 -0.258382,0 -0.444416,0.2067051 -0.1757,0.1963698 -0.1757,0.4857569 0,0.2997224 0.217041,0.5477681 0.21704,0.248046 0.547768,0.351399 z m -2.387443,1.746658 1.901686,-1.229895 Q 45.926931,10.687295 45.66855,10.30489 45.420504,9.9224858 45.420504,9.5194109 q 0,-0.5374332 0.372069,-0.9198375 0.382404,-0.3824044 0.919838,-0.3824044 0.568439,0 0.971514,0.3824044 0.41341,0.3824043 0.41341,0.9198375 0,0.3617339 -0.1757,0.7027971 -0.175699,0.341064 -0.485757,0.60978 l 1.963699,0.816485 0.547768,-0.41341 V 8.8992957 h -1.24023 V 8.2791805 h 3.100576 v 0.6201152 h -1.167884 v 6.2631633 h -0.692462 v -3.100576 l -3.234934,2.480461 -0.475422,-0.547768 2.614819,-1.932693 -1.860345,-0.754473 -2.067051,1.374589 z"
         id="path23455"
         style="font-size:10.5833px;line-height:1.25;stroke-width:0.264583" />
      <path
         d="M 51.52864,8.8992957 V 8.2791805 h 1.167884 q -0.1757,-0.9921843 -0.651121,-1.6329701 -0.465087,-0.6407857 -1.00252,-0.6407857 -0.403075,0 -0.682127,0.2687166 -0.279052,0.2583814 -0.279052,0.6304505 0,0.3307281 0.144694,0.6614562 0.144694,0.3203929 0.403075,0.5787742 H 49.874999 Q 49.637289,7.9071114 49.513265,7.5867185 49.389242,7.2663257 49.389242,6.9045918 q 0,-0.6304505 0.485757,-1.0645311 0.475422,-0.4444159 1.167884,-0.4444159 0.795815,0 1.457271,0.816485 0.661456,0.816485 0.878496,2.0670507 h 1.178219 V 8.8992957 H 53.37865 V 15.162459 H 52.696524 V 8.8992957 Z"
         id="path23457"
         style="font-size:10.5833px;line-height:1.25;stroke-width:0.264583" />
      <path
         d="M 57.543758,8.8992957 V 8.2791805 h 5.622377 V 8.8992957 H 61.998252 V 15.162459 H 61.316125 V 8.8992957 h -1.725987 v 3.3692923 q 0,0.165364 -0.103353,0.289387 -0.103352,0.124024 -0.237711,0.124024 -0.258381,0 -0.816485,-0.640786 -0.558103,-0.651121 -0.558103,-0.940508 0,-0.103353 0.08268,-0.186035 0.08268,-0.08268 0.186034,-0.08268 h 0.485757 q 0.113688,0 0.19637,-0.103352 0.08268,-0.103353 0.08268,-0.248046 V 8.8992957 Z"
         id="path23459"
         style="font-size:10.5833px;line-height:1.25;stroke-width:0.264583" />
      <path
         d="m 65.336539,12.826692 q 0.372069,0 0.630451,-0.299722 0.258381,-0.310058 0.258381,-0.733803 V 8.8992957 h -1.860346 v 2.8938713 q 0,0.423745 0.279052,0.733803 0.289387,0.299722 0.692462,0.299722 z m 0,0.682127 q -0.692462,0 -1.178219,-0.496092 -0.475421,-0.506428 -0.475421,-1.21956 V 8.8992957 H 62.887084 V 8.2791805 h 7.193337 V 8.8992957 H 68.912537 V 15.162459 H 68.220075 V 8.8992957 h -1.302242 v 2.8938713 q 0,0.713132 -0.475422,1.21956 -0.465086,0.496092 -1.105872,0.496092 z"
         id="path23461"
         style="font-size:10.5833px;line-height:1.25;stroke-width:0.264583" />
      <path
         d="M 68.116723,8.2791805 65.57425,5.2509512 66.049672,4.8375411 68.798849,8.2791805 Z"
         id="path23463"
         style="font-size:10.5833px;line-height:1.25;stroke-width:0.264583" />
      <path
         d="M 73.832117,8.8992957 V 8.2791805 h 3.234934 V 8.8992957 H 75.899167 V 15.162459 H 75.206705 V 8.8992957 Z M 71.971771,10.48059 q 0.341063,0 0.640786,-0.206706 0.299722,-0.206705 0.465086,-0.547768 -0.155029,-0.4030749 -0.423745,-0.651121 -0.258381,-0.2480461 -0.547769,-0.2480461 -0.341063,0 -0.589109,0.2687166 -0.237711,0.2583814 -0.237711,0.6304505 0,0.320393 0.19637,0.537433 0.206705,0.217041 0.496092,0.217041 z m 1.374589,4.681869 -3.090241,-2.614819 0.341063,-0.485757 q 0.299723,0.248046 0.475422,0.372069 0.175699,0.113688 0.279052,0.113688 0.775144,0 1.312577,-0.599444 0.547769,-0.60978 0.547769,-1.467606 -0.1757,0.320392 -0.516763,0.506427 -0.341064,0.186035 -0.723468,0.186035 -0.568439,0 -0.971514,-0.423746 -0.403075,-0.434081 -0.403075,-1.02319 0,-0.6614562 0.434081,-1.1162074 0.444416,-0.4650864 1.074866,-0.4650864 0.744139,0 1.271237,0.692462 0.527098,0.6821267 0.527098,1.6433058 0,1.064531 -0.630451,1.808669 -0.63045,0.744138 -1.508947,0.744138 l 1.994704,1.643305 z"
         id="path23465"
         style="font-size:10.5833px;line-height:1.25;stroke-width:0.264583" />
      <path
         d="M 76.787997,8.8992957 V 8.2791805 h 3.02823 V 8.8992957 H 78.638008 V 15.162459 H 77.955881 V 8.8992957 Z"
         id="path23467"
         style="font-size:10.5833px;line-height:1.25;stroke-width:0.264583" />
      <path
         d="m 82.327696,13.167755 q 0.537433,0 1.012855,-0.289387 0.485756,-0.299722 0.775144,-0.816485 V 8.8992957 h -2.335768 q 0.258382,0.3203929 0.403075,0.6821268 0.144694,0.3513986 0.144694,0.6924615 0,0.599445 -0.475422,1.064532 -0.465086,0.465086 -1.178219,0.589109 0.103353,0.537433 0.568439,0.888832 0.465086,0.351398 1.085202,0.351398 z M 79.537177,8.8992957 V 8.2791805 h 6.438863 v 0.6201152 h -1.167883 v 6.2631633 h -0.692462 v -2.129062 q -0.403075,0.39274 -0.868162,0.60978 -0.454751,0.206705 -0.919837,0.206705 -0.992185,0 -1.705317,-0.713132 -0.702797,-0.723468 -0.702797,-1.756993 0.785479,0 1.250565,-0.299723 0.465087,-0.310057 0.465087,-0.80615 0,-0.3307277 -0.1757,-0.6821263 -0.175699,-0.3617339 -0.506427,-0.692462 z"
         id="path23469"
         style="font-size:10.5833px;line-height:1.25;stroke-width:0.264583" />
      <path
         d="m 89.303991,11.038693 q 0,-0.144693 0.144694,-0.248046 0.144693,-0.103352 0.341063,-0.103352 h 3.638009 V 8.8992957 H 88.962928 V 8.2791805 h 6.325175 v 0.6201152 h -1.167884 v 6.2631633 h -0.692462 v -3.782702 h -1.994703 q -0.165365,0 -0.289388,0.08268 -0.124023,0.08268 -0.124023,0.186034 v 0.692462 q 0,0.165364 -0.103352,0.289387 -0.103353,0.124023 -0.237711,0.124023 -0.237711,0 -0.80615,-0.713132 -0.568439,-0.723468 -0.568439,-1.00252 z"
         id="path23471"
         style="font-size:10.5833px;line-height:1.25;stroke-width:0.264583" />
      <path
         d="m 96.931409,11.173052 h 2.48046 V 8.8992957 h -2.48046 z M 95.009051,8.8992957 V 8.2791805 h 6.263169 V 8.8992957 H 100.094 v 6.2631633 h -0.682131 v -3.307281 h -2.48046 v 0.485757 q 0,0.165364 -0.06201,0.289387 -0.06201,0.124023 -0.144693,0.124023 -0.237711,0 -0.80615,-0.516762 -0.568439,-0.516763 -0.568439,-0.723468 0,-0.134358 0.103352,-0.237711 0.103353,-0.103352 0.237711,-0.103352 h 0.558104 V 8.8992957 Z"
         id="path23473"
         style="font-size:10.5833px;line-height:1.25;stroke-width:0.264583" />
      <path
         d="m 102.84317,11.038693 q -0.28939,0 -0.48576,-0.21704 -0.19637,-0.227376 -0.19637,-0.547769 0,-0.3100572 0.19637,-0.5270975 0.19637,-0.2273756 0.48576,-0.2273756 0.32039,0 0.53743,0.2273756 0.22738,0.2170403 0.22738,0.5270975 0,0.320393 -0.22738,0.547769 -0.21704,0.21704 -0.53743,0.21704 z m 0,3.017894 q -0.28939,0 -0.48576,-0.21704 -0.19637,-0.21704 -0.19637,-0.537433 0,-0.310058 0.19637,-0.527098 0.19637,-0.227376 0.48576,-0.227376 0.32039,0 0.53743,0.227376 0.22738,0.21704 0.22738,0.527098 0,0.320393 -0.22738,0.537433 -0.21704,0.21704 -0.53743,0.21704 z"
         id="path23475"
         style="font-size:10.5833px;line-height:1.25;stroke-width:0.264583" />
      <path
         d="M 112.16557,15.162459 V 8.2791805 h 0.68213 v 6.8832785 z m -2.20141,0 V 8.2791805 h 0.68213 v 6.8832785 z"
         id="path23477"
         style="font-size:10.5833px;line-height:1.25;stroke-width:0.264583" />
    </g>
  </g>
</svg>
